<mxfile host="app.diagrams.net" agent="Mozilla/5.0 (Windows NT 10.0; Win64; x64; rv:135.0) Gecko/20100101 Firefox/135.0" version="26.0.11">
  <diagram name="第 1 页" id="iwscSEHHzue5ykvxjD9j">
    <mxGraphModel dx="2022" dy="651" grid="1" gridSize="10" guides="1" tooltips="1" connect="1" arrows="1" fold="1" page="1" pageScale="1" pageWidth="827" pageHeight="1169" math="0" shadow="0">
      <root>
        <mxCell id="0" />
        <mxCell id="1" parent="0" />
        <mxCell id="CLh6qFj-PrpjbXizlvvu-1" value="&lt;div&gt;RFP&lt;/div&gt;&lt;div&gt;Request For Proporsal&lt;/div&gt;" style="rounded=0;whiteSpace=wrap;html=1;" vertex="1" parent="1">
          <mxGeometry x="-40" y="80" width="120" height="60" as="geometry" />
        </mxCell>
        <mxCell id="CLh6qFj-PrpjbXizlvvu-2" value="投標" style="rounded=0;whiteSpace=wrap;html=1;" vertex="1" parent="1">
          <mxGeometry x="-40" y="160" width="120" height="60" as="geometry" />
        </mxCell>
        <mxCell id="CLh6qFj-PrpjbXizlvvu-3" value="得標" style="rounded=0;whiteSpace=wrap;html=1;" vertex="1" parent="1">
          <mxGeometry x="-40" y="240" width="120" height="60" as="geometry" />
        </mxCell>
        <mxCell id="CLh6qFj-PrpjbXizlvvu-5" value="需求訪談" style="rounded=0;whiteSpace=wrap;html=1;" vertex="1" parent="1">
          <mxGeometry x="141" y="80" width="120" height="60" as="geometry" />
        </mxCell>
        <mxCell id="CLh6qFj-PrpjbXizlvvu-6" value="雛型系統" style="rounded=0;whiteSpace=wrap;html=1;" vertex="1" parent="1">
          <mxGeometry x="141" y="160" width="120" height="60" as="geometry" />
        </mxCell>
        <mxCell id="CLh6qFj-PrpjbXizlvvu-7" value="功能測試" style="rounded=0;whiteSpace=wrap;html=1;" vertex="1" parent="1">
          <mxGeometry x="141" y="240" width="120" height="60" as="geometry" />
        </mxCell>
        <mxCell id="CLh6qFj-PrpjbXizlvvu-10" value="" style="endArrow=classic;html=1;rounded=0;exitX=1;exitY=0.5;exitDx=0;exitDy=0;entryX=1;entryY=0.5;entryDx=0;entryDy=0;" edge="1" parent="1" source="CLh6qFj-PrpjbXizlvvu-7" target="CLh6qFj-PrpjbXizlvvu-6">
          <mxGeometry width="50" height="50" relative="1" as="geometry">
            <mxPoint x="401" y="420" as="sourcePoint" />
            <mxPoint x="451" y="370" as="targetPoint" />
            <Array as="points">
              <mxPoint x="331" y="270" />
              <mxPoint x="331" y="190" />
            </Array>
          </mxGeometry>
        </mxCell>
        <mxCell id="CLh6qFj-PrpjbXizlvvu-11" value="軟硬體建置" style="rounded=0;whiteSpace=wrap;html=1;" vertex="1" parent="1">
          <mxGeometry x="141" y="320" width="120" height="60" as="geometry" />
        </mxCell>
        <mxCell id="CLh6qFj-PrpjbXizlvvu-12" value="資料匯入" style="rounded=0;whiteSpace=wrap;html=1;fillColor=#f8cecc;strokeColor=#b85450;" vertex="1" parent="1">
          <mxGeometry x="384" y="80" width="120" height="60" as="geometry" />
        </mxCell>
        <mxCell id="CLh6qFj-PrpjbXizlvvu-13" value="&lt;div&gt;平行測試&lt;/div&gt;&lt;div&gt;(1-3個月)&lt;/div&gt;&lt;div&gt;(新舊系統同時運作)&lt;/div&gt;" style="rounded=0;whiteSpace=wrap;html=1;" vertex="1" parent="1">
          <mxGeometry x="384" y="160" width="120" height="60" as="geometry" />
        </mxCell>
        <mxCell id="CLh6qFj-PrpjbXizlvvu-14" value="上線" style="rounded=0;whiteSpace=wrap;html=1;" vertex="1" parent="1">
          <mxGeometry x="384" y="240" width="120" height="60" as="geometry" />
        </mxCell>
        <mxCell id="CLh6qFj-PrpjbXizlvvu-15" value="" style="endArrow=classic;html=1;rounded=0;exitX=1;exitY=0.5;exitDx=0;exitDy=0;entryX=0;entryY=0.5;entryDx=0;entryDy=0;" edge="1" parent="1" source="CLh6qFj-PrpjbXizlvvu-3" target="CLh6qFj-PrpjbXizlvvu-5">
          <mxGeometry width="50" height="50" relative="1" as="geometry">
            <mxPoint x="390" y="420" as="sourcePoint" />
            <mxPoint x="440" y="370" as="targetPoint" />
            <Array as="points">
              <mxPoint x="110" y="270" />
              <mxPoint x="110" y="110" />
            </Array>
          </mxGeometry>
        </mxCell>
        <mxCell id="CLh6qFj-PrpjbXizlvvu-16" value="" style="endArrow=classic;html=1;rounded=0;exitX=1;exitY=0.5;exitDx=0;exitDy=0;entryX=0;entryY=0.5;entryDx=0;entryDy=0;" edge="1" parent="1" source="CLh6qFj-PrpjbXizlvvu-11" target="CLh6qFj-PrpjbXizlvvu-12">
          <mxGeometry width="50" height="50" relative="1" as="geometry">
            <mxPoint x="401" y="420" as="sourcePoint" />
            <mxPoint x="451" y="370" as="targetPoint" />
            <Array as="points">
              <mxPoint x="351" y="350" />
              <mxPoint x="351" y="110" />
            </Array>
          </mxGeometry>
        </mxCell>
        <mxCell id="CLh6qFj-PrpjbXizlvvu-17" value="客戶需求" style="text;html=1;align=center;verticalAlign=middle;resizable=0;points=[];autosize=1;strokeColor=none;fillColor=none;" vertex="1" parent="1">
          <mxGeometry x="-180" y="80" width="70" height="30" as="geometry" />
        </mxCell>
        <mxCell id="CLh6qFj-PrpjbXizlvvu-18" value="廠商" style="text;html=1;align=center;verticalAlign=middle;resizable=0;points=[];autosize=1;strokeColor=none;fillColor=none;" vertex="1" parent="1">
          <mxGeometry x="-170" y="110" width="50" height="30" as="geometry" />
        </mxCell>
        <mxCell id="CLh6qFj-PrpjbXizlvvu-19" value="定義範圍" style="text;html=1;align=center;verticalAlign=middle;resizable=0;points=[];autosize=1;strokeColor=none;fillColor=none;" vertex="1" parent="1">
          <mxGeometry x="-180" y="170" width="70" height="30" as="geometry" />
        </mxCell>
      </root>
    </mxGraphModel>
  </diagram>
</mxfile>
